<svg id="Layer_1" xmlns="http://www.w3.org/2000/svg" viewBox="0 0 73.7 88.6"><style>.rotatable{animation:spin 3s ease infinite alternate;transform-origin:center 53px}@keyframes spin{0%{transform:rotate(0deg)}to{transform:rotate(900deg)}}</style><path class="rotatable" d="M36.8 32.9c-11.1 0-20.1 9-20.1 20.1 0 11.1 9 20.1 20.1 20.1s20.1-9 20.1-20.1c0-11.1-9-20.1-20.1-20.1zm0 38.7c-10.3 0-18.6-8.3-18.6-18.6s8.3-18.6 18.6-18.6S55.4 42.7 55.4 53c0 10.2-8.3 18.6-18.6 18.6zm14.6-26.9c-.4-.9-1.7-3.1-4.1-5-1.7-1.5-4-2.6-6.1-3.2-1.9-.5-3.5-.6-4-.6-1 0-1.9.1-2.5.4-.8.2-1.2.6-1.1 1 .1.4.6.5 1.3.6h.2c.6 0 1.3.1 2.1.1h.1c.5 0 1.8.1 3.4.5 1.9.4 4 1.4 5.6 2.6 2.2 1.6 3.6 3.6 4.1 4.4.5.7.8 1.4 1 1.8.3.6.4.7.6.7l.2-.1.1-.1c.2-.6-.3-2-.9-3.1zM38.8 68.4h-.3c-.6 0-1.3-.1-2-.1h-.1c-.5 0-1.8-.1-3.4-.5-1.9-.4-4-1.4-5.6-2.6-2.2-1.6-3.6-3.6-4.1-4.4-.5-.7-.8-1.4-1-1.8-.3-.6-.4-.7-.6-.7l-.2.1-.1.1c-.1.3.4 1.7 1 2.9.4.9 1.7 3.1 4.1 5 1.7 1.5 4 2.6 6.1 3.2 1.9.5 3.5.6 4 .6 1 0 1.9-.1 2.5-.4.8-.2 1.2-.6 1.1-1-.2-.2-.8-.3-1.4-.4zM36.4 70zm10.9-25.8c-1.1-1.4-2.7-2.7-4.3-3.6-1-.5-2-.9-3-1.2-1.3-.3-2.6-.2-3 .3-.1.1-.2.3-.2.4 0 .5.7.8 2.7 1.3h.1c.4.1 1.4.3 2.5.9 1.4.6 2.8 1.7 3.9 2.9 1.4 1.6 2.2 3.3 2.5 4 .2.6.4 1.1.5 1.4.2.6.3.8.5.8h.2l.1-.1c.2-.3 0-1.6-.2-2.5-.2-.7-.8-2.6-2.3-4.6zm-21 17.7c1.1 1.4 2.7 2.7 4.3 3.6 1.4.8 2.6 1.1 3 1.2.5.1.9.2 1.4.2.8 0 1.4-.2 1.6-.4.1-.1.2-.3.2-.4 0-.5-.7-.8-2.7-1.3H34c-.4-.1-1.4-.3-2.5-.9-1.4-.6-2.8-1.7-3.9-2.9-1.4-1.6-2.2-3.3-2.5-4-.2-.6-.4-1.1-.5-1.4-.2-.6-.3-.8-.6-.8h-.2l-.1.1c-.2.3 0 1.6.2 2.5.5 1.4 1.4 3.1 2.4 4.5zm20.2-11.2c-.1-.2-.1-.4-.2-.6-.1-.5-.2-.9-.4-1.3-1.1-2.7-3.7-4.6-4.3-4.8-.3-.1-.5-.3-.8-.4-.2-.1-.5-.1-.7-.1H40c-.7 0-.9.3-1 .5-.1.3.1.6.5.9.1.1.2.2.3.2.1 0 .1.1.2.1.2.1.4.3.7.4.4.1 2.7 1.5 3.8 3.7.9 1.5 1.1 3.2 1.1 4.1.1.6.1.9.4.9.3 0 .4-.3.5-.6v-.1c.1-.3.2-.7.1-1.2v-.5c.1-.3.1-.8-.1-1.2zm-19.4 4.7c.1.2.1.4.2.6.1.5.2.9.4 1.3 1.1 2.7 3.7 4.6 4.3 4.8.3.1.5.3.8.4.2.1.5.1.7.1h.1c.7 0 .9-.3 1-.5.1-.3-.1-.6-.5-.9-.1-.1-.2-.2-.3-.2-.1 0-.1-.1-.2-.1-.2-.1-.4-.3-.7-.4-.4-.1-2.7-1.5-3.8-3.7-.9-1.5-1-3.2-1.1-4.1-.1-.6-.1-.9-.4-.9-.3 0-.4.3-.5.6v.1c-.1.3-.2.7-.1 1.2v.5c-.1.3-.1.8.1 1.2z"/><path d="M69 15L67.6 4.8C67.5 2.2 65.4 0 62.7 0H10.9C8.3 0 6.1 2.2 6 4.8L4.7 15C2 15.9 0 18.4 0 21.5L2.7 82c0 3.7 2.8 6.7 6.3 6.7h55.6c3.5 0 6.3-3 6.3-6.5l2.7-60.7c.1-3.1-1.9-5.6-4.6-6.5zM6.6 19.3h60.3c1.1 0 2 .9 2.1 1.9H4.6c.1-1 1-1.9 2-1.9zm4-14V5c0-.3.2-.4.3-.4h51.8c.1 0 .3.2.3.4v.3l1.3 9.4h-55l1.3-9.4zm54 78.7H9c-.9 0-1.7-.9-1.7-2.2l-2.6-59H69L66.3 82c0 1.1-.7 2-1.7 2z"/><path d="M36.8 27.2C22.6 27.2 11 38.8 11 53.1c0 14.2 11.6 25.8 25.8 25.8 14.3 0 25.8-11.6 25.8-25.8.1-14.3-11.5-25.9-25.8-25.9zm0 48.8c-12.6 0-22.9-10.3-22.9-22.9s10.3-22.9 22.9-22.9 22.9 10.3 22.9 22.9C59.7 65.7 49.5 76 36.8 76zM20.4 7.5h-5c-.6 0-1.1.5-1.1 1.1v2.2c0 .6.5 1.1 1.1 1.1h5c.6 0 1.1-.5 1.1-1.1V8.6c0-.6-.5-1.1-1.1-1.1z"/><circle cx="45.8" cy="9.7" r="1.9"/><circle cx="51.6" cy="9.7" r="1.9"/><circle cx="57.4" cy="9.7" r="1.9"/></svg>
