<svg xmlns="http://www.w3.org/2000/svg" viewBox="0 0 73.7 88.6"><path d="M69 15L67.6 4.8C67.5 2.2 65.4 0 62.7 0H10.9C8.3 0 6.1 2.2 6 4.8L4.7 15C2 15.9 0 18.4 0 21.5L2.7 82c0 3.7 2.8 6.7 6.3 6.7h55.6c3.5 0 6.3-3 6.3-6.5l2.7-60.7c.1-3.1-1.9-5.6-4.6-6.5zM6.6 19.3h60.3c1.1 0 2 .9 2.1 1.9H4.6c.1-1 1-1.9 2-1.9zm4-14V5c0-.3.2-.4.3-.4h51.8c.1 0 .3.2.3.4v.3l1.3 9.4h-55l1.3-9.4zm54 78.7H9c-.9 0-1.7-.9-1.7-2.2l-2.6-59H69L66.3 82c0 1.1-.7 2-1.7 2z"/><path d="M36.8 27.2C22.6 27.2 11 38.8 11 53.1c0 14.2 11.6 25.8 25.8 25.8 14.3 0 25.8-11.6 25.8-25.8.1-14.3-11.5-25.9-25.8-25.9zm0 48.8c-12.6 0-22.9-10.3-22.9-22.9 0-12.6 10.3-22.9 22.9-22.9 12.6 0 22.9 10.3 22.9 22.9C59.7 65.7 49.5 76 36.8 76z"/><path d="M51.1 67.1c.1 0 .1 0 0 0 3.6-3.7 5.8-8.6 5.8-14.1 0-11.1-9-20.1-20.1-20.1-11.1 0-20.1 9-20.1 20.1 0 11.1 9 20.1 20.1 20.1 5.6 0 10.7-2.3 14.3-6zm-.4-1.7c-1-1.7-1.8-3.5-.1-6.9 2.9-5.7 1-9.1-.4-11.9-1.2-2.3-2.1-3.9-.3-6.4 0-.1.1-.2.1-.2 3.3 3.4 5.4 8 5.4 13.1 0 4.7-1.8 9-4.7 12.3zM18.2 53.1c0-10.3 8.3-18.6 18.6-18.6 4.6 0 8.8 1.7 12.1 4.5-.1.1-.2.2-.2.4-1 1.3-1.3 2.5-1.3 3.6 0 1.6.8 3 1.5 4.4 1.5 2.7 3 5.5.4 10.5-2.2 4.3-.9 6.8.3 8.7-3.3 3.2-7.8 5.1-12.8 5.1-10.2 0-18.6-8.4-18.6-18.6zm2.2-45.6h-5c-.6 0-1.1.5-1.1 1.1v2.2c0 .6.5 1.1 1.1 1.1h5c.6 0 1.1-.5 1.1-1.1V8.6c0-.6-.5-1.1-1.1-1.1z"/><circle cx="45.8" cy="9.7" r="1.9"/><circle cx="51.6" cy="9.7" r="1.9"/><circle cx="57.4" cy="9.7" r="1.9"/></svg>